<svg width="500" height="132" viewBox="0 0 500 132" fill="none" xmlns="http://www.w3.org/2000/svg">
<path d="M120.837 0.582031C126.36 0.58227 130.837 5.05933 130.837 10.582V121.418C130.837 126.941 126.36 131.418 120.837 131.418H10C4.47736 131.418 0 126.941 0 121.418V10.582C0 5.05933 4.47736 0.582272 10 0.582031H120.837ZM35.7461 79.0225L35.751 79.5254C35.8543 84.7321 37.5547 89.794 40.6348 94.043C42.6882 96.8755 45.2922 99.2532 48.2725 101.06V56.4502H67.377C75.678 56.4505 82.4081 63.1804 82.4082 71.4814V102.634H94.9346V71.4814C94.9345 56.2626 82.5957 43.9231 67.377 43.9229H35.7461V79.0225ZM297.464 54.6367C301.132 51.9574 305.65 50.3733 310.54 50.373L311.683 50.4023C323.411 50.9972 332.738 60.6943 332.738 72.5703L332.709 73.7129C332.113 85.4405 322.416 94.7684 310.54 94.7686L309.397 94.7393C298.048 94.1634 288.948 85.0619 288.372 73.7129L288.343 72.5703C288.343 72.2918 288.354 72.0134 288.364 71.7373V26.7334H297.464V54.6367ZM379.277 94.7686H370.987V26.8877H379.277V94.7686ZM404.141 73.4111C404.142 79.8433 409.357 85.0581 415.789 85.0596H417.455C423.887 85.0581 429.103 79.8433 429.104 73.4111V49.2637H438.812V73.4111C438.811 85.2047 429.248 94.7656 417.455 94.7676H415.789C403.995 94.7661 394.434 85.205 394.433 73.4111V49.2637H404.141V73.4111ZM194.17 49.2637C205.964 49.2649 215.526 58.8254 215.527 70.6191V94.7666H205.819V70.6191C205.818 64.1865 200.6 58.9712 194.167 58.9707H179.362V93.5459C177.052 92.1457 175.031 90.3033 173.439 88.1074C171.052 84.8144 169.737 80.8916 169.657 76.8564L169.654 76.6602V49.2637H194.17ZM239.457 73.4102C239.458 79.8424 244.67 85.0584 251.103 85.0596H252.765C259.198 85.0592 264.412 79.8429 264.413 73.4102V49.2637H274.121V73.4102C274.12 85.2046 264.559 94.7663 252.765 94.7666H251.103C239.309 94.7654 229.747 85.204 229.746 73.4102V49.2637H239.457V73.4102ZM356.476 94.7656H347.945V49.2705H356.476V94.7656ZM476.517 65.0049L489.05 49.3018H500L481.975 71.8467L499.962 94.3857H498.822C495.843 94.2711 492.914 93.5624 490.214 92.2842C487.533 91.0147 485.142 89.2144 483.173 87.0039L476.514 78.6748L463.957 94.3887H453.071L471.057 71.8467L453.031 49.2988H463.983L476.517 65.0049ZM310.54 58.9053C302.994 58.9059 296.875 65.0247 296.875 72.5703C296.876 80.1154 302.995 86.2327 310.54 86.2334C318.086 86.2332 324.202 80.1157 324.203 72.5703C324.203 65.0243 318.086 58.9054 310.54 58.9053ZM98.833 29.3662C98.5455 29.3718 98.3011 29.571 98.2383 29.8525C98.2228 29.9221 98.2076 30.0359 98.1846 30.208C98.0311 31.3562 97.5645 34.8504 95.3887 36.8389C93.2274 38.814 90.1643 39.3845 88.8564 39.6279C88.6142 39.6732 88.4385 39.7057 88.3291 39.7363C88.0556 39.8135 87.8695 40.0663 87.877 40.3506C87.8845 40.6353 88.0837 40.878 88.3613 40.9404C88.4349 40.9571 88.5532 40.9733 88.7314 40.9971C89.862 41.1495 93.3 41.6133 95.3545 43.7969C97.2209 45.7811 97.8304 48.4328 98.0771 49.8564L98.2061 50.6504C98.2187 50.7243 98.2305 50.7844 98.2422 50.8311C98.3114 51.1069 98.5578 51.3004 98.8428 51.3018C99.126 51.3016 99.3748 51.11 99.4453 50.8359C99.4656 50.7572 99.4877 50.6234 99.5215 50.4209C99.7172 49.246 100.314 45.6721 102.304 43.8271C104.467 41.8221 107.657 41.2482 108.858 41.0322C109.087 40.9913 109.252 40.9608 109.355 40.9326C109.628 40.857 109.816 40.607 109.812 40.3242C109.807 40.0409 109.612 39.7958 109.336 39.7295C109.255 39.71 109.127 39.6913 108.934 39.6631C107.704 39.4825 104.438 39.0026 102.323 36.8604C100.172 34.6803 99.6966 31.4677 99.5176 30.2578C99.4882 30.059 99.4685 29.9269 99.4482 29.8418C99.3798 29.5578 99.119 29.3539 98.833 29.3662ZM352.199 15.9199C352.486 15.9073 352.746 16.1112 352.814 16.3955C352.835 16.4806 352.854 16.612 352.884 16.8105C353.063 18.0203 353.538 21.2339 355.69 23.4141C357.805 25.5562 361.071 26.0363 362.3 26.2168C362.493 26.245 362.621 26.2637 362.702 26.2832C362.978 26.3494 363.173 26.5936 363.178 26.877C363.183 27.1601 362.995 27.4108 362.722 27.4863C362.618 27.5145 362.453 27.5441 362.225 27.585C361.024 27.8009 357.833 28.3748 355.67 30.3799C353.68 32.2247 353.084 35.7986 352.889 36.9736C352.855 37.1763 352.832 37.3099 352.812 37.3887C352.741 37.6631 352.493 37.8555 352.209 37.8555C351.924 37.8541 351.678 37.6605 351.608 37.3848C351.585 37.2913 351.561 37.1438 351.529 36.9395C351.345 35.7575 350.854 32.6183 348.721 30.3506C346.666 28.1665 343.228 27.7021 342.098 27.5498C341.919 27.5259 341.801 27.5099 341.728 27.4932C341.45 27.4307 341.251 27.1889 341.243 26.9043C341.236 26.62 341.422 26.3673 341.695 26.29C341.805 26.2594 341.98 26.226 342.223 26.1807C343.53 25.9373 346.593 25.367 348.755 23.3916C350.93 21.4033 351.397 17.9103 351.551 16.7617C351.574 16.5895 351.589 16.4749 351.604 16.4053C351.667 16.1239 351.912 15.9255 352.199 15.9199Z" fill="black"/>
</svg>
